GREETZ: UnDeaD - BadGirl2k9 - virusofsaten - foxyb - WICCYWOLF - lizzymwah1

VISIT http://www.seedboxworld.biz/ for all ur seedbox needs!

RELEASE NAME: Every.Day.2010.R5.X264-SDTeam
RELEASED BY: UnDeaD & BadGirl2k9
SIZE: 406 MB

LANGUAGE: English
IMDb: http://www.imdb.com/title/tt1301990/

PLOT: A comedy about a New York City couple 
(Schreiber and Hunt) in romantic crisis.

COVER IMAGE: http://bayimg.com/dAoKDaaCo
SCREENS: 
http://i658.photobucket.com/albums/uu309/BadGirl2k9/screens/vlcsnap-2010-09-12-01h44m02s0.png 
http://i658.photobucket.com/albums/uu309/BadGirl2k9/screens/vlcsnap-2010-09-12-01h44m12s13.png 
http://i658.photobucket.com/albums/uu309/BadGirl2k9/screens/vlcsnap-2010-09-12-01h44m22s109.png

General
Format                           : MPEG-4
Format profile                   : Base Media
Codec ID                         : isom
File size                        : 406 MiB
Duration                         : 1h 29mn
Overall bit rate                 : 638 Kbps
Encoded date                     : UTC 2010-09-11 00:41:00
Tagged date                      : UTC 2010-09-11 00:41:00

Video
ID                               : 1
Format                           : AVC
Format/Info                      : Advanced Video Codec
Format profile                   : High@L2.1
Format settings, CABAC           : Yes
Format settings, ReFrames        : 4 frames
Codec ID                         : avc1
Codec ID/Info                    : Advanced Video Coding
Duration                         : 1h 29mn
Bit rate mode                    : Variable
Bit rate                         : 505 Kbps
Nominal bit rate                 : 500 Kbps
Maximum bit rate                 : 2 309 Kbps
Width                            : 592 pixels
Height                           : 336 pixels
Display aspect ratio             : 16:9
Frame rate mode                  : Constant
Frame rate                       : 20.000 fps
Resolution                       : 8 bits
Colorimetry                      : 4:2:0
Scan type                        : Progressive
Bits/(Pixel*Frame)               : 0.127
Stream size                      : 322 MiB (79%)
Title                            : Imported with GPAC 0.4.6-DEV (internal rev. 5)
Writing library                  : x264 core 102 r1666 d058f37

Audio
ID                               : 2
Format                           : MPEG Audio
Format version                   : Version 1
Format profile                   : Layer 3
Format_Settings_Mode             : Joint stereo
Format_Settings_ModeExtension    : MS Stereo
Codec ID                         : 6B
Duration                         : 1h 29mn
Bit rate mode                    : Variable
Bit rate                         : 129 Kbps
Nominal bit rate                 : 128 Kbps
Maximum bit rate                 : 140 Kbps
Channel(s)                       : 2 channels
Sampling rate                    : 48.0 KHz
Stream size                      : 82.7 MiB (20%)
Title                            : Imported with GPAC 0.4.6-DEV (internal rev. 5)
Writing library                  : LAME3.90.

GROUP NOTE: Big thanks to seedboxworld.biz for the seedbox!

